# xmcd
#
# Track frame offsets:
#	150
#	12495
#	26155
#	36382
#	50712
#	64982
#	76010
#	89412
#	117107
#	126497
#	138595
#	152037
#	165507
#	179925
#	191440
#	202217
#
# Disc length: 2835 seconds
#
# Revision: 1
# Processed by: cddbd v1.5.2PL0 Copyright (c) Steve Scherf et al.
# Submitted via: audiograbber 1.83.01
#
DISCID=ef0b1110
DTITLE=Various Artist - Gold from Gold 1 radio gold
DYEAR=1998
DGENRE=Oldies
TTITLE0=FRANKIE LANE - MY LITTLE ONE
TTITLE1=THE BROTHERS FOUR - GREENFIELDS
TTITLE2=SERGIO ENDRIGO - TI AMO
TTITLE3=LOS INDIOS TABAJARAS - MARIA HELENA
TTITLE4=FRANCOISE HARDY - TOUS LES GARCONS ET LES FILLES
TTITLE5=BEN E KING - I (who have nothing)
TTITLE6=DIONNE WARWICK - ANYONE WHO HAD A HEART
TTITLE7=IT'S A BEAUTIFUL DAY - WHITE BIRD
TTITLE8=DORIS DAY - QUE SERA SERA
TTITLE9=R B GREAVES - TAKE A LETTER, MARIA
TTITLE10=MIRIAM MAKEBA - PATA PATA
TTITLE11=TRINI LOPEZ - IF I HAD A HAMMER
TTITLE12=THE ROKES - PIANGI CON ME
TTITLE13=JOHNY CASH - RING OF FIRE
TTITLE14=MITCH MILLER - THE BRIDGE OF RIVER KWAI (theme of)
TTITLE15=THE ROUTERS - LET'S GO
EXTD=
EXTT0=
EXTT1=
EXTT2=
EXTT3=
EXTT4=
EXTT5=
EXTT6=
EXTT7=
EXTT8=
EXTT9=
EXTT10=
EXTT11=
EXTT12=
EXTT13=
EXTT14=
EXTT15=
PLAYORDER=
